<?xml version="1.0" encoding="UTF-8"?>
<svg xmlns="http://www.w3.org/2000/svg" xmlns:xlink="http://www.w3.org/1999/xlink" width="16px" height="14px" viewBox="0 0 16 14" version="1.1">
<g id="surface1">
<path style=" stroke:none;fill-rule:nonzero;fill:rgb(0%,0%,0%);fill-opacity:1;" d="M 14.355469 4.148438 C 14.367188 4.273438 14.367188 4.398438 14.367188 4.523438 C 14.367188 8.316406 11.066406 12.683594 5.035156 12.683594 C 3.179688 12.683594 1.449219 12.214844 0 11.398438 C 0.261719 11.425781 0.519531 11.433594 0.789062 11.433594 C 2.324219 11.433594 3.738281 10.980469 4.863281 10.207031 C 3.417969 10.179688 2.214844 9.355469 1.800781 8.21875 C 2 8.242188 2.199219 8.261719 2.414062 8.261719 C 2.710938 8.261719 3.003906 8.226562 3.28125 8.164062 C 1.777344 7.898438 0.652344 6.742188 0.652344 5.347656 L 0.652344 5.3125 C 1.085938 5.527344 1.59375 5.660156 2.132812 5.675781 C 1.25 5.160156 0.667969 4.28125 0.667969 3.285156 C 0.667969 2.753906 0.832031 2.265625 1.117188 1.839844 C 2.730469 3.578125 5.15625 4.71875 7.878906 4.839844 C 7.824219 4.628906 7.800781 4.40625 7.800781 4.183594 C 7.800781 2.601562 9.257812 1.316406 11.074219 1.316406 C 12.023438 1.316406 12.875 1.660156 13.472656 2.222656 C 14.214844 2.097656 14.925781 1.855469 15.554688 1.527344 C 15.308594 2.195312 14.789062 2.753906 14.113281 3.109375 C 14.773438 3.046875 15.410156 2.886719 16 2.664062 C 15.554688 3.234375 14.996094 3.738281 14.355469 4.148438 Z M 14.355469 4.148438 "/>
</g>
</svg>
